<svg id="Capa_1" data-name="Capa 1" xmlns="http://www.w3.org/2000/svg" viewBox="0 0 512.8 512"><defs><style>.cls-1{fill:#fff;}.cls-2{fill:#1c3f87;}</style></defs><path id="App_Icon_Placeholder" data-name="App Icon Placeholder" class="cls-1" d="M178.5,0h155c51.4,0,77.09,0,104.76,8.75a108.69,108.69,0,0,1,65,65C512,101.41,512,127.11,512,178.5v155c0,51.4,0,77.09-8.75,104.76a108.69,108.69,0,0,1-65,65C410.59,512,384.9,512,333.5,512h-155c-51.4,0-77.09,0-104.76-8.75a108.69,108.69,0,0,1-65-65C0,410.59,0,384.9,0,333.5v-155c0-51.39,0-77.09,8.75-104.76a108.69,108.69,0,0,1,65-65C101.41,0,127.1,0,178.5,0h0"/><path id="App_Icon_Placeholder-2" data-name="App Icon Placeholder" class="cls-2" d="M190.07,25.6H329.56c46.27,0,69.39,0,94.29,7.87A97.85,97.85,0,0,1,482.34,92c7.88,24.9,7.88,48,7.88,94.28v139.5c0,46.26,0,69.38-7.88,94.28a97.81,97.81,0,0,1-58.49,58.49c-24.9,7.88-48,7.88-94.29,7.88H190.07c-46.26,0-69.38,0-94.28-7.88A97.85,97.85,0,0,1,37.29,420c-7.87-24.9-7.87-48-7.87-94.28V186.25c0-46.25,0-69.38,7.87-94.28a97.89,97.89,0,0,1,58.5-58.5c24.9-7.87,48-7.87,94.28-7.87h0"/><rect class="cls-1" x="0.8" y="158.77" width="512" height="49.9"/><path class="cls-1" d="M145.24,139.31H127.52L94.84,86.42v52.89H77.36V62.16H99.54l28.23,44v-44h17.47Z"/><path class="cls-1" d="M195.24,104.63H169.3V90.92h25.94Z"/><path class="cls-1" d="M240.4,139.31H224.14V81.78h-8.07v-13q10.22,0,10.22-6.72H240.4Z"/><path class="cls-1" d="M321.18,100.74q0,18.54-5.78,28-7.26,12.1-24.6,12.1t-24.6-12.1q-5.77-9.41-5.78-27.95t5.78-28q7.26-12,24.6-12t24.6,12Q321.18,82.32,321.18,100.74Zm-17.74,0q0-10.76-1.62-16-2.82-9.27-11-9.27-8.6,0-11.29,9.27-1.35,4.71-1.34,16.13,0,11.16,1.47,16Q282.47,126,290.8,126t11-9.27Q303.44,111.49,303.44,100.74Z"/><path class="cls-1" d="M363.78,139.31H347.52V81.78h-8.06v-13q10.21,0,10.21-6.72h14.11Z"/><path class="cls-1" d="M438.78,139.31h-56v-7.26a30.61,30.61,0,0,1,5.65-17.54,42.93,42.93,0,0,1,13.58-13q5-2.82,16.8-10.08a10.71,10.71,0,0,0,3.89-8.2c0-2.42-1.3-4.25-3.89-5.51a16.8,16.8,0,0,0-7.26-1.48q-7.67,0-18.95,8.74l-9.82-12.37q12.64-11,30.38-11,11.7,0,18.35,5.9T438.11,85q0,10.59-9.81,17-2.42,1.62-17.74,10.87-7.4,5.63-7.39,11h35.61Z"/><path class="cls-1" d="M192.06,257.4q0,11.33-13.42,11.32H162.29v-36.5h15.77a11,11,0,0,1,7.48,2.73,8.85,8.85,0,0,1,3.15,7,8.21,8.21,0,0,1-2.93,6.36,7.54,7.54,0,0,1,4.77,3.37A10.26,10.26,0,0,1,192.06,257.4Zm-10.43-14.88a2.79,2.79,0,0,0-1.38-2.48,5.51,5.51,0,0,0-3-.89h-6.65v6.68h6.65a5.51,5.51,0,0,0,3-.89A2.76,2.76,0,0,0,181.63,242.52Zm2.54,14.56a4.15,4.15,0,0,0-1.5-3.43,5.85,5.85,0,0,0-3.8-1.21h-8.31v9.35h8.31a5.71,5.71,0,0,0,3.77-1.27A4.25,4.25,0,0,0,184.17,257.08Z"/><path class="cls-1" d="M231.8,254.16q0,7.18-4.32,11-4.08,3.69-11.39,3.69t-11.38-3.75q-4.2-3.77-4.2-10.88v-22H209v20.92q0,8,7.12,7.95t7.19-7.95V232.22h8.52Z"/><path class="cls-1" d="M270,257q0,6.1-4.18,9.28-3.79,2.92-10,2.93a29.63,29.63,0,0,1-13.68-3.25l2.85-6.55a13,13,0,0,0,5.12,2,24.44,24.44,0,0,0,5.5.7q6.49,0,6.5-4.65,0-3.24-5.21-4.89l-6.93-2.16-2.67-.9a8.7,8.7,0,0,1-5.16-8.2q0-4.89,5.22-7.5a21.18,21.18,0,0,1,9.6-2.1,20,20,0,0,1,11.39,3L266,241.37a11.39,11.39,0,0,0-5-2.09,25.12,25.12,0,0,0-5.53-.64q-4.77,0-4.77,3.12c0,1.4,1.67,2.6,5,3.62a60.37,60.37,0,0,1,9.23,3.31A9,9,0,0,1,270,257Z"/><path class="cls-1" d="M311.36,239.08l-7.44,4.14a9.47,9.47,0,0,0-8.08-3.75q-9.46,0-9.47,11a12.23,12.23,0,0,0,2.29,7.76,8.49,8.49,0,0,0,7.18,3.24q4.77,0,7.25-2.73l7.76,3.56q-5,6.87-15,6.87a17.84,17.84,0,0,1-13.29-5.31,18.36,18.36,0,0,1-5.21-13.39q0-8.66,4.93-13.64t13.57-5Q306.54,231.83,311.36,239.08Z"/><path class="cls-1" d="M353.33,268.72h-8.9l-2.48-7.5H330.31l-2.54,7.5h-9.1l13-36.5h8.52Zm-13.41-13.67-3.82-11.51-3.82,11.51Z"/><path class="cls-1" d="M239.92,346.5a44.71,44.71,0,0,1-11.37,30.65Q217.18,390,199.32,390h-38.5v48.1H130.76V305.34h68.68q17.58,0,29,11.68T239.92,346.5Zm-30.07.7a14.59,14.59,0,0,0-5.25-11.8,19.58,19.58,0,0,0-13-4.39H160.82v33.07h30.82a18.65,18.65,0,0,0,13-4.74A15.63,15.63,0,0,0,209.85,347.2Z"/><path class="cls-1" d="M390.47,438.08h-37.7l-31.22-52-18.5,22.2v29.83H272.29V305.34h30.76v64.52l49.26-64.52h35.62L341,362.46Z"/></svg>