<svg id="Capa_1" data-name="Capa 1" xmlns="http://www.w3.org/2000/svg" viewBox="0 0 512.8 512"><defs><style>.cls-1,.cls-3,.cls-4,.cls-5{fill:#fff;}.cls-2{fill:#1c3f87;}.cls-3{font-size:134.41px;}.cls-3,.cls-4,.cls-5{font-family:BlueHighwayBold, Blue Highway;}.cls-4{font-size:63.6px;}.cls-5{font-size:231.27px;}</style></defs><path id="App_Icon_Placeholder" data-name="App Icon Placeholder" class="cls-1" d="M178.5,0h155c51.4,0,77.09,0,104.76,8.75a108.69,108.69,0,0,1,65,65C512,101.41,512,127.11,512,178.5v155c0,51.4,0,77.09-8.75,104.76a108.69,108.69,0,0,1-65,65C410.59,512,384.9,512,333.5,512h-155c-51.4,0-77.09,0-104.76-8.75a108.69,108.69,0,0,1-65-65C0,410.59,0,384.9,0,333.5v-155c0-51.39,0-77.09,8.75-104.76a108.69,108.69,0,0,1,65-65C101.41,0,127.1,0,178.5,0h0"/><path id="App_Icon_Placeholder-2" data-name="App Icon Placeholder" class="cls-2" d="M190.07,25.6H329.56c46.27,0,69.39,0,94.29,7.87A97.85,97.85,0,0,1,482.34,92c7.88,24.9,7.88,48,7.88,94.28v139.5c0,46.26,0,69.38-7.88,94.28a97.81,97.81,0,0,1-58.49,58.49c-24.9,7.88-48,7.88-94.29,7.88H190.07c-46.26,0-69.38,0-94.28-7.88A97.85,97.85,0,0,1,37.29,420c-7.87-24.9-7.87-48-7.87-94.28V186.25c0-46.25,0-69.38,7.87-94.28a97.89,97.89,0,0,1,58.5-58.5c24.9-7.87,48-7.87,94.28-7.87h0"/><rect class="cls-1" x="0.8" y="158.77" width="512" height="49.9"/><text class="cls-3" transform="translate(66.48 138.91)">N-1012</text><text class="cls-4" transform="translate(157.14 268.53)">BUSCA</text><text class="cls-5" transform="translate(110.64 437.39)">PK</text></svg>